<svg width="53" height="54" viewBox="0 0 53 54" fill="none" xmlns="http://www.w3.org/2000/svg">
  <path fill-rule="evenodd" clip-rule="evenodd" d="M28.0351 1.86704C25.7529 1.21716 17.0114 7.42587 18.7581 8.43298C20.0325 9.17544 21.4116 8.44566 27.9213 3.6187C29.4505 2.51413 29.4696 2.27553 28.0351 1.86704ZM16.8906 10.0974C14.9265 9.47298 8.358 16.6962 9.5771 18.1279C10.3939 19.0871 12.0641 17.8871 15.3423 13.9349C18.0903 10.607 18.1396 10.491 16.8906 10.0974ZM26.6802 34.7327C24.9951 33.6238 25.1349 37.0365 26.8712 40.0036C27.2952 40.7045 27.6194 41.3173 27.6273 41.3847C27.6167 41.5172 24.4673 39.704 20.8542 37.5201C15.0914 34.03 13.7674 35.4045 19.5407 38.762C24.001 41.3607 26.8409 43.0425 26.9384 43.157C26.9994 43.2286 26.6891 43.2703 26.2607 43.2893C20.1129 43.4366 18.452 43.6903 18.5229 44.4697C18.6028 45.6366 20.3368 46.1358 23.7495 45.996C28.8614 45.7923 30.2948 45.8804 33.1946 46.6465C34.3175 46.95 33.9592 46.0942 32.1501 44.2017C29.406 41.3272 28.372 39.4168 28.0624 36.7909C27.9857 35.9177 27.592 35.3394 26.6802 34.7327ZM9.74113 31.0533C11.0212 32.5565 11.5047 32.5153 12.9053 32.6809L12.8927 32.173C12.8896 31.8793 12.4561 30.9642 11.88 29.9976C10.5614 27.811 10.1053 25.6802 10.3794 22.9276C10.4071 22.583 10.3917 22.275 10.3287 22.2299C6.23222 18.7534 6.12039 26.8012 9.74113 31.0533Z" fill="#D4D4D4" />
</svg>