<svg width="117" height="116" viewBox="0 0 117 116" fill="none" xmlns="http://www.w3.org/2000/svg">
  <path fill-rule="evenodd" clip-rule="evenodd" d="M65.1296 4.1049C70.269 3.62043 86.5025 20.3688 82.3669 21.8298C79.3465 22.9122 76.6863 20.8041 64.6779 7.89667C61.8454 4.92734 61.8992 4.40942 65.1296 4.1049ZM85.7009 26.1307C90.1497 25.5746 101.333 43.6308 98.1574 46.2093C96.0297 47.9368 92.9334 44.7074 87.4898 34.9532C82.9327 26.7449 82.8732 26.4771 85.7009 26.1307ZM54.9868 74.9389C59.0312 73.2358 57.378 80.4797 52.487 86.1371C51.302 87.4682 50.3654 88.6502 50.3217 88.7911C50.2918 89.0788 57.7474 86.4501 66.3422 83.2127C80.053 78.0343 82.3397 81.4995 68.6588 86.3902C58.0875 90.1786 51.3459 92.649 51.0919 92.8553C50.9331 92.9842 51.5802 93.1965 52.4889 93.4071C65.58 96.1615 69.0319 97.3634 68.571 99.0022C67.9372 101.466 64.0301 101.846 56.7862 100.193C45.9333 97.7289 42.8324 97.3486 36.3259 97.8366C33.8039 98.0402 34.9096 96.352 39.53 93.0219C46.54 87.9624 49.5096 84.2866 51.2138 78.7928C51.7244 76.9556 52.7959 75.8748 54.9868 74.9389ZM92.6779 73.7903C89.3435 76.4977 88.3257 76.2176 85.2642 76.0161L85.4928 74.9347C85.6159 74.3078 86.9061 72.5225 88.5219 70.6836C92.21 66.5299 94.0309 62.1533 94.5368 56.1571C94.6144 55.4091 94.7694 54.7563 94.9222 54.6849C105.064 48.8744 102.109 66.1322 92.6779 73.7903Z" fill="#E50004" />
</svg>