<svg width="52" height="52" viewBox="0 0 52 52" fill="none" xmlns="http://www.w3.org/2000/svg">
  <path fill-rule="evenodd" clip-rule="evenodd" d="M26.0358 1.75352C23.8107 1.22973 15.6752 7.59342 17.4009 8.48481C18.6602 9.14255 19.9549 8.3789 26.0043 3.4442C27.4266 2.31321 27.4344 2.08276 26.0358 1.75352ZM15.6779 10.1695C13.76 9.65615 7.7607 16.8994 8.99756 18.2228C9.82626 19.1095 11.3801 17.8804 14.3588 13.9313C16.855 10.6066 16.8973 10.4927 15.6779 10.1695ZM26.1949 33.4402C24.5239 32.4481 24.8104 35.7259 26.6132 38.5039C27.0524 39.1595 27.3917 39.7348 27.4023 39.7992C27.398 39.9272 24.2867 38.3226 20.7126 36.3818C15.0118 33.2799 13.7988 34.6614 19.5039 37.6354C23.9117 39.9375 26.7194 41.4295 26.8183 41.5354C26.8802 41.6016 26.5834 41.6555 26.1721 41.6928C20.2626 42.1082 18.6756 42.4264 18.7786 43.1732C18.9073 44.2925 20.5982 44.6957 23.876 44.4092C28.786 43.9857 30.1693 44.0067 32.9939 44.6148C34.0879 44.8569 33.7051 44.0494 31.88 42.3087C29.1114 39.6648 28.0314 37.8724 27.6165 35.3593C27.5039 34.5224 27.0993 33.9834 26.1949 33.4402ZM9.73072 30.6535C11.0294 32.0431 11.4929 31.9819 12.848 32.0789L12.8133 31.5907C12.7972 31.3083 12.3394 30.447 11.742 29.5425C10.3757 27.497 9.84203 25.4668 9.98326 22.8059C9.99452 22.473 9.96607 22.1773 9.90336 22.1367C5.80664 18.9736 6.05725 26.723 9.73072 30.6535Z" fill="#F5B034" />
</svg>