<svg width="164" height="169" viewBox="0 0 164 169" fill="none" xmlns="http://www.w3.org/2000/svg">
  <path fill-rule="evenodd" clip-rule="evenodd" d="M64.8712 6.36928C71.7711 3.21275 102.4 18.6151 97.3657 22.6421C93.6963 25.6044 88.9846 23.9639 66.0769 11.851C60.7099 9.09833 60.5342 8.35339 64.8712 6.36928ZM104.072 27.0008C109.979 24.0786 134.23 43.7373 131.068 48.8514C128.95 52.2778 123.091 49.2916 110.82 38.3826C100.527 29.1912 100.315 28.8483 104.072 27.0008ZM85.0287 109.598C89.8197 105.279 91.026 116.133 86.9712 126.35C85.9696 128.771 85.2408 130.864 85.2482 131.081C85.3459 131.495 94.4246 124.242 104.79 115.594C121.32 101.779 126.169 105.484 109.542 118.885C96.6988 129.253 88.5348 135.941 88.2818 136.35C88.1237 136.606 89.1246 136.588 90.4878 136.441C109.991 133.937 115.363 133.937 115.516 136.434C115.827 140.161 110.587 142.577 99.7328 143.783C83.4767 145.609 78.9884 146.579 70.1926 150.402C66.7901 151.903 67.5091 149.025 72.3131 142.17C79.5983 131.758 81.9438 125.221 81.6541 116.771C81.4748 113.974 82.4398 111.956 85.0287 109.598ZM136.793 89.7855C133.473 95.1553 131.925 95.2584 127.578 96.4584L127.372 94.8469C127.24 93.9172 128.168 90.8153 129.523 87.4818C132.634 79.9333 133.047 72.978 130.851 64.4101C130.597 63.3342 130.496 62.3532 130.674 62.1802C141.943 49.2129 146.184 74.5965 136.793 89.7855Z" fill="#F5B034" />
</svg>