<svg width="105" height="102" viewBox="0 0 105 102" fill="none" xmlns="http://www.w3.org/2000/svg">
  <path fill-rule="evenodd" clip-rule="evenodd" d="M39.2393 2.89705C34.5198 3.13826 22.0309 20.4578 25.9705 21.234C28.8497 21.8149 30.9805 19.5532 40.1503 6.27205C42.3232 3.20747 42.2059 2.74544 39.2393 2.89705ZM23.5195 25.5712C19.416 25.6561 11.6749 43.492 14.8927 45.4075C17.0486 46.6909 19.4261 43.3559 23.0664 33.7997C26.1083 25.7612 26.1268 25.5107 23.5195 25.5712ZM57.8002 65.7197C53.9112 64.7121 56.3674 71.0552 61.5465 75.5328C62.7961 76.5817 63.8009 77.5285 63.8591 77.6503C63.9243 77.907 56.8228 76.5124 48.6088 74.7171C35.5037 71.8405 33.8909 75.2821 46.9308 77.9019C57.0081 79.9348 63.4418 81.2806 63.6992 81.4338C63.8601 81.5296 63.302 81.8075 62.5067 82.1186C51.0127 86.3459 48.0449 87.8913 48.6792 89.3149C49.5794 91.4632 53.1688 91.2902 59.5119 88.8341C69.017 85.166 71.7757 84.4112 77.7341 83.9923C80.0456 83.8429 78.8206 82.46 74.1946 80.0549C67.1751 76.3993 63.9987 73.4625 61.7279 68.7115C61.0224 67.1148 59.9087 66.2776 57.8002 65.7197ZM23.5059 69.6667C26.8846 71.6779 27.7695 71.2895 30.5161 70.7019L30.166 69.7526C29.9715 69.201 28.5665 67.7545 26.8595 66.3026C22.969 63.0279 20.7405 59.3043 19.4887 53.9397C19.3194 53.2723 19.0926 52.7015 18.9448 52.6571C8.9894 48.7356 13.949 63.9777 23.5059 69.6667Z" fill="#D4D4D4" />
</svg>