<svg width="54" height="53" viewBox="0 0 54 53" fill="none" xmlns="http://www.w3.org/2000/svg">
  <path fill-rule="evenodd" clip-rule="evenodd" d="M29.2848 1.67901C31.6435 1.41946 39.2252 9.00102 37.3348 9.70223C35.9543 10.2214 34.7164 9.27153 29.1044 3.42507C27.7812 2.0806 27.8022 1.84216 29.2848 1.67901ZM38.898 11.6551C40.9389 11.3676 46.2086 19.5865 44.7675 20.7945C43.802 21.6038 42.3556 20.1417 39.7836 15.6974C37.6301 11.9573 37.6008 11.8346 38.898 11.6551ZM25.1312 34.3093C26.9779 33.4974 26.27 36.8388 24.0625 39.4742C23.5274 40.0945 23.1054 40.6445 23.0863 40.7096C23.0747 40.8421 26.4826 39.5803 30.4098 38.0306C36.6745 35.5521 37.7504 37.1284 31.4974 39.4745C26.6657 41.2916 23.5848 42.4755 23.4695 42.5721C23.3974 42.6325 23.6964 42.7254 24.1156 42.8157C30.1524 43.9878 31.7476 44.5154 31.5475 45.272C31.2739 46.4092 29.4808 46.6117 26.1395 45.9038C21.1334 44.8492 19.7054 44.6967 16.7183 44.9676C15.5606 45.0793 16.0567 44.2954 18.1565 42.7317C21.3422 40.3559 22.6807 38.645 23.4247 36.1077C23.6461 35.2596 24.1309 34.7551 25.1312 34.3093ZM42.4469 33.5109C40.9337 34.7792 40.4639 34.6577 39.0553 34.5871L39.1526 34.0884C39.2047 33.7994 39.7849 32.9696 40.5144 32.1128C42.1797 30.1771 42.9852 28.1524 43.1748 25.3928C43.2051 25.0484 43.2716 24.7472 43.3414 24.7133C47.9609 21.9699 46.727 29.9233 42.4469 33.5109Z" fill="#E50004" />
</svg>