<svg width="106" height="103" viewBox="0 0 106 103" fill="none" xmlns="http://www.w3.org/2000/svg">
<path fill-rule="evenodd" clip-rule="evenodd" d="M63.7772 3.00517C68.5024 3.07457 81.6129 19.9284 77.7042 20.8474C74.848 21.5326 72.6363 19.3499 62.9896 6.41106C60.7067 3.42754 60.8071 2.96154 63.7772 3.00517ZM80.3112 25.0926C84.4152 25.0282 92.7998 42.5708 89.6538 44.6021C87.5459 45.963 85.0488 42.7166 81.0633 33.2991C77.7311 25.3766 77.7035 25.127 80.3112 25.0926ZM47.5133 66.4613C51.3631 65.3129 49.1393 71.7412 44.1265 76.4041C42.9159 77.4978 41.9461 78.4805 41.8924 78.6044C41.8366 78.8633 48.8827 77.2113 57.0259 75.1184C70.0177 71.7672 71.7547 75.1478 58.8186 78.2402C48.822 80.6382 42.4414 82.2171 42.1898 82.3796C42.0325 82.4811 42.6003 82.7385 43.4064 83.0205C55.0465 86.827 58.0686 88.2635 57.4865 89.7091C56.665 91.8888 53.0716 91.8464 46.6434 89.6226C37.0112 86.3026 34.2269 85.6487 28.2572 85.4467C25.9418 85.3815 27.1157 83.9549 31.6512 81.3832C38.5331 77.4748 41.6006 74.4244 43.697 69.594C44.3441 67.9727 45.4266 67.0955 47.5133 66.4613ZM81.9285 69.1584C78.6252 71.2912 77.7267 70.9353 74.9607 70.4479L75.276 69.4865C75.4503 68.9282 76.8018 67.4316 78.4548 65.9185C82.2236 62.5045 84.3153 58.7024 85.3711 53.2957C85.516 52.6227 85.7219 52.044 85.868 51.9942C95.6742 47.7132 91.2722 63.1256 81.9285 69.1584Z" fill="#D4D4D4"/>
</svg>
