<svg width="99" height="102" viewBox="0 0 99 102" fill="none" xmlns="http://www.w3.org/2000/svg">
<path fill-rule="evenodd" clip-rule="evenodd" d="M39.3394 3.94542C43.5021 2.04106 61.9809 11.3334 58.9436 13.7629C56.7298 15.5501 53.8872 14.5604 40.0668 7.2526C36.8288 5.59187 36.7229 5.14244 39.3394 3.94542ZM62.9898 16.3926C66.5533 14.6296 81.1841 26.4898 79.2766 29.5752C77.9985 31.6424 74.4638 29.8408 67.0606 23.2593C60.8507 17.7141 60.7227 17.5072 62.9898 16.3926ZM51.5006 66.2238C54.391 63.6181 55.1188 70.1667 52.6725 76.3308C52.0682 77.791 51.6285 79.0541 51.633 79.1848C51.6919 79.4344 57.1692 75.0589 63.4229 69.8414C73.3951 61.5067 76.3206 63.7419 66.2895 71.827C58.5412 78.0822 53.6158 82.117 53.4632 82.3638C53.3678 82.5181 53.9716 82.5071 54.7941 82.4185C66.5605 80.9079 69.8018 80.9078 69.8937 82.4146C70.0815 84.6631 66.9202 86.1204 60.3716 86.8482C50.5642 87.9495 47.8564 88.5353 42.5498 90.8413C40.4971 91.7472 40.9308 90.0109 43.8292 85.8748C48.2244 79.5936 49.6394 75.6493 49.4647 70.5515C49.3565 68.864 49.9387 67.6464 51.5006 66.2238ZM82.7304 54.271C80.7275 57.5107 79.7934 57.5729 77.1708 58.2969L77.0469 57.3246C76.9672 56.7638 77.5271 54.8924 78.344 52.8812C80.2214 48.3272 80.4701 44.131 79.1453 38.9619C78.9922 38.3128 78.9316 37.7209 79.0388 37.6166C85.8374 29.7933 88.3959 45.1074 82.7304 54.271Z" fill="#F5B034"/>
</svg>
