<svg width="20" height="20" viewBox="0 0 20 20" fill="none" xmlns="http://www.w3.org/2000/svg">
<path d="M19.4129 1.91291C19.7791 1.5468 19.7791 0.953204 19.4129 0.587087C19.0468 0.220971 18.4532 0.220971 18.0871 0.587087L10 8.67419L1.91291 0.587091C1.5468 0.220975 0.953204 0.220975 0.587087 0.587091C0.220971 0.953208 0.220971 1.5468 0.587087 1.91292L8.67419 10L0.587121 18.0871C0.221005 18.4532 0.221005 19.0468 0.587121 19.4129C0.953238 19.779 1.54683 19.779 1.91295 19.4129L10 11.3258L18.0871 19.4129C18.4532 19.779 19.0468 19.779 19.4129 19.4129C19.779 19.0468 19.779 18.4532 19.4129 18.0871L11.3258 10L19.4129 1.91291Z" fill="#A0A9B1"/>
</svg>
