<svg width="38" height="39" viewBox="0 0 38 39" fill="none" xmlns="http://www.w3.org/2000/svg">
  <path fill-rule="evenodd" clip-rule="evenodd" d="M33.5919 0.795926C33.0589 1.11583 31.8593 2.26218 30.9528 3.32854C29.7532 4.71481 29.1666 5.22137 28.8468 5.08806C20.9558 1.78234 12.3982 3.43519 7.70615 6.47432L6.98632 6.9542L5.12017 5.08806C2.61422 2.60877 -3.19751 1.56905 2.26759 7.27411L4.427 9.51346C4.24039 10.1533 -3.99723 21.9366 4.1871 31.9604L5.41345 33.48L4.1871 35.2128C1.8411 38.5719 4.48032 39.6382 7.4928 36.519L8.37262 35.6128L9.59884 36.2524C19.4094 41.2377 30.473 35.2395 30.4997 35.2128L31.566 36.3857C33.3789 38.4119 35.2716 39.0784 36.8446 38.2254C38.7906 37.1856 34.3386 34.1731 33.9387 33.7733L32.7658 32.6269L33.2456 31.9072C39.2438 22.7363 39.3504 13.1658 33.4588 7.91392L32.4991 7.06081C33.0324 6.36768 33.6186 5.5679 35.4848 3.46183C37.9376 0.689298 36.7111 -1.12352 33.5919 0.795926ZM27.034 7.75398C26.9541 7.91393 18.6096 17.5378 18.4231 17.5113C18.1564 17.4846 10.0788 10.1799 9.78551 9.70007C9.51891 9.24686 10.1054 8.58041 11.1185 7.88727C19.1428 2.55546 27.5938 6.84757 27.034 7.75398ZM30.9261 10.5532C33.8321 14.6588 34.1252 21.8033 31.5927 26.7886C30.0197 29.8543 30.2064 29.8009 28.2336 27.7216C27.3006 26.7352 21.009 20.2305 21.009 20.2305C21.009 20.2305 27.3005 12.9791 28.2601 11.8594C30.2863 9.51344 30.2064 9.54014 30.9261 10.5532ZM10.9052 15.4851C14.5043 18.6842 15.1706 19.4573 16.0504 20.3638L11.9716 25.3224C7.22629 31.0806 7.73275 30.7608 6.71971 28.6547C4.64031 24.3625 4.64033 18.9241 6.7464 13.9922C7.46619 12.3393 7.27962 12.2861 10.9052 15.4851ZM27.8337 32.7336C27.8072 32.7336 19.0095 39.9847 11.0918 33.6665L10.3187 33.0534L18.823 23.0563C25.3544 29.9876 25.3811 30.041 27.8337 32.7336Z" fill="#E50004" />
</svg>