<svg width="21" height="21" viewBox="0 0 21 21" fill="none" xmlns="http://www.w3.org/2000/svg">
  <path fill-rule="evenodd" clip-rule="evenodd" d="M18.281 0.43315C17.9909 0.607245 17.3381 1.2311 16.8448 1.81142C16.192 2.56584 15.8727 2.84151 15.6987 2.76896C11.4043 0.969966 6.7472 1.86946 4.19375 3.52338L3.80201 3.78453L2.78644 2.76896C1.42268 1.41971 -1.74011 0.853888 1.23404 3.95863L2.40921 5.1773C2.30765 5.5255 -2.17533 11.9381 2.27866 17.3931L2.94605 18.2201L2.27866 19.1631C1.00194 20.9912 2.43823 21.5714 4.07764 19.874L4.55645 19.3808L5.22377 19.7289C10.5628 22.4419 16.5837 19.1777 16.5982 19.1631L17.1785 19.8014C18.1651 20.9041 19.1951 21.2668 20.0511 20.8026C21.1102 20.2367 18.6874 18.5973 18.4697 18.3797L17.8314 17.7559L18.0925 17.3642C21.3568 12.3733 21.4148 7.16496 18.2086 4.30682L17.6863 3.84255C17.9765 3.46534 18.2955 3.0301 19.3111 1.88396C20.6459 0.375122 19.9785 -0.61143 18.281 0.43315ZM14.7121 4.21978C14.6687 4.30683 10.1275 9.54421 10.026 9.52978C9.88089 9.51525 5.48494 5.54 5.32536 5.27886C5.18027 5.03222 5.49945 4.66953 6.05077 4.29232C10.4177 1.3907 15.0168 3.72651 14.7121 4.21978ZM16.8303 5.74313C18.4117 7.97742 18.5712 11.8655 17.193 14.5786C16.337 16.247 16.4386 16.2179 15.365 15.0863C14.8572 14.5495 11.4333 11.0096 11.4333 11.0096C11.4333 11.0096 14.8571 7.06335 15.3794 6.45401C16.482 5.17729 16.4386 5.19182 16.8303 5.74313ZM5.93472 8.42713C7.89334 10.1681 8.25597 10.5888 8.73475 11.0821L6.51502 13.7807C3.93261 16.9143 4.20823 16.7403 3.65693 15.5941C2.5253 13.2583 2.52531 10.2986 3.67145 7.61468C4.06316 6.71514 3.96163 6.68618 5.93472 8.42713ZM15.1473 17.8139C15.1329 17.8139 10.3451 21.76 6.03624 18.3216L5.61552 17.9879L10.2436 12.5474C13.7981 16.3195 13.8126 16.3486 15.1473 17.8139Z" fill="#E50004" />
</svg>