<svg width="22" height="22" viewBox="0 0 22 22" fill="none" xmlns="http://www.w3.org/2000/svg">
  <path fill-rule="evenodd" clip-rule="evenodd" d="M11 22C17.0751 22 22 17.0751 22 11C22 4.92488 17.0751 0 11 0C4.92488 0 0 4.92488 0 11C0 17.0751 4.92488 22 11 22ZM17.1147 8.25031C17.4186 7.91083 17.3898 7.38927 17.0503 7.08534C16.7108 6.78143 16.1893 6.81023 15.8853 7.14969L12.1793 11.2892C11.4283 12.128 10.9226 12.6899 10.4902 13.0533C10.0783 13.3995 9.83633 13.475 9.625 13.475C9.41367 13.475 9.17173 13.3995 8.75983 13.0533C8.32744 12.6899 7.8217 12.128 7.07073 11.2892L6.11466 10.2213C5.81073 9.88183 5.28917 9.85303 4.94969 10.1569C4.61023 10.4609 4.58143 10.9824 4.88534 11.3219L5.88227 12.4354C6.58172 13.2167 7.16511 13.8684 7.6982 14.3164C8.26208 14.7904 8.87031 15.125 9.625 15.125C10.3797 15.125 10.9879 14.7904 11.5518 14.3164C12.0849 13.8684 12.6683 13.2167 13.3677 12.4354L17.1147 8.25031Z" fill="#03930A" />
</svg>