<svg width="45" height="45" viewBox="0 0 45 45" fill="none" xmlns="http://www.w3.org/2000/svg">
  <path fill-rule="evenodd" clip-rule="evenodd" d="M22.0751 44.1503C34.2669 44.1503 44.1503 34.2669 44.1503 22.0751C44.1503 9.88339 34.2669 0 22.0751 0C9.88339 0 0 9.88339 0 22.0751C0 34.2669 9.88339 44.1503 22.0751 44.1503ZM34.3462 16.557C34.9561 15.8757 34.8983 14.829 34.2171 14.2191C33.5358 13.6092 32.4891 13.667 31.8792 14.3482L24.4417 22.6555C22.9346 24.3388 21.9197 25.4665 21.052 26.1958C20.2254 26.8906 19.7398 27.042 19.3157 27.042C18.8916 27.042 18.4061 26.8906 17.5795 26.1958C16.7118 25.4665 15.6968 24.3388 14.1898 22.6555L12.2711 20.5124C11.6611 19.8312 10.6145 19.7734 9.93319 20.3833C9.25195 20.9932 9.19416 22.0399 9.80405 22.7211L11.8047 24.9558C13.2084 26.5237 14.3792 27.8315 15.449 28.7306C16.5806 29.6818 17.8012 30.3533 19.3157 30.3533C20.8303 30.3533 22.0509 29.6818 23.1825 28.7307C24.2523 27.8315 25.4231 26.5237 26.8267 24.9558L34.3462 16.557Z" fill="#03930A" />
</svg>