<svg width="192" height="60" viewBox="0 0 222 100" fill="none" xmlns="http://www.w3.org/2000/svg">
  <path d="M45.9615 30.2778C45.3221 28.7228 44.4996 27.3506 43.4029 26.1161C42.3068 24.8811 40.9814 23.875 39.4741 23.1433C37.9661 22.4117 36.2756 22 34.494 22H18V52.2306H25.5846V47.9317H34.7682C36.5498 47.9317 38.1948 47.5656 39.7022 46.8339C41.2101 46.1017 42.4894 45.1417 43.54 43.9067C44.5912 42.7178 45.4131 41.3456 46.0075 39.7906C46.6014 38.2356 46.8755 36.635 46.8755 34.9883C46.8755 33.3878 46.6014 31.8328 45.9615 30.2778ZM37.829 39.5617C36.8694 40.705 35.7273 41.3 34.3564 41.3H25.5846V28.6772H33.9912C34.6766 28.6772 35.3166 28.8144 35.9559 29.0889C36.5953 29.3633 37.1436 29.775 37.6464 30.3239C38.1032 30.8722 38.469 31.5128 38.7886 32.29C39.0628 33.1133 39.1999 33.9822 39.1999 34.9883C39.1999 36.9094 38.7431 38.4639 37.829 39.5617ZM18 65.0361H25.5846V56.5294H18V65.0361Z" fill="#F5B034" />
  <path d="M58.9803 65.1411C57.5906 65.1411 56.2924 64.9111 55.0875 64.4556C53.8804 63.9978 52.8387 63.3567 51.9623 62.5328C51.0854 61.7111 50.3983 60.7506 49.9055 59.6522C49.4121 58.5556 49.1646 57.3478 49.1646 56.03C49.1646 54.6767 49.4681 53.4239 50.0703 52.2717C50.6725 51.1194 51.5139 50.1389 52.5911 49.335C53.6689 48.5311 54.9582 47.8994 56.4573 47.4417C57.9563 46.9839 59.6008 46.7561 61.3918 46.7561C62.6705 46.7561 63.922 46.8656 65.1469 47.0844C66.3712 47.3056 67.4579 47.6156 68.4103 48.0178V46.3717C68.4103 44.4694 67.8708 43.0067 66.793 41.9817C65.7135 40.9567 64.1135 40.445 61.9945 40.445C60.4594 40.445 58.9603 40.7178 57.499 41.2672C56.0355 41.8161 54.5386 42.6222 53.004 43.6833L50.7552 39.0183C54.447 36.5661 58.4314 35.34 62.7082 35.34C66.8374 35.34 70.0459 36.3561 72.3303 38.3861C74.6146 40.4161 75.7568 43.3528 75.7568 47.1939V56.1394C75.7568 56.9078 75.8928 57.4572 76.1675 57.7872C76.4417 58.1155 76.8879 58.2989 77.5101 58.3344V64.5917C76.2674 64.8461 75.1902 64.9761 74.2755 64.9761C72.8858 64.9761 71.8169 64.6656 71.0698 64.0422C70.32 63.4217 69.8538 62.5978 69.6707 61.5728L69.5059 59.9828C68.2255 61.6644 66.6726 62.9461 64.8455 63.8239C63.0185 64.7011 61.0615 65.1411 58.9803 65.1411ZM61.0615 59.7617C62.3047 59.7617 63.4847 59.5428 64.6002 59.1028C65.7135 58.665 66.581 58.08 67.2037 57.3478C68.0068 56.7267 68.4103 56.03 68.4103 55.2617V51.97C67.5317 51.64 66.581 51.3739 65.5593 51.1728C64.5353 50.9722 63.5468 50.8717 62.5989 50.8717C60.6958 50.8717 59.1435 51.3022 57.9385 52.1622C56.732 53.0222 56.1292 54.1094 56.1292 55.4272C56.1292 56.6711 56.6021 57.705 57.555 58.5267C58.503 59.3506 59.6746 59.7617 61.0615 59.7617Z" fill="#F5B034" />
  <path d="M82.498 70.1906C83.1207 70.3733 83.7229 70.5095 84.3073 70.6011C84.8917 70.6928 85.3873 70.7395 85.7886 70.7395C86.2637 70.7395 86.701 70.6461 87.105 70.465C87.5063 70.2794 87.8726 69.96 88.2001 69.5045C88.5303 69.0445 88.8583 68.415 89.1885 67.6111C89.5165 66.805 89.8645 65.8 90.2303 64.5917L78.8794 35.8339H86.4468L94.2324 58.225L101.139 35.8339H108.049L95.9862 70.3C95.2924 72.3117 94.103 73.9578 92.4236 75.2395C90.7414 76.5167 88.6574 77.16 86.1726 77.16C85.5877 77.16 84.9944 77.115 84.39 77.0211C83.7878 76.9278 83.1562 76.7761 82.498 76.5572V70.1906Z" fill="#F5B034" />
  <path d="M137.599 32.2672H125.156V64.5917H117.644V32.2672H105.198V25.6261H137.599V32.2672Z" fill="black" />
  <path d="M143.522 65.1411C142.133 65.1411 140.834 64.9111 139.63 64.4556C138.422 63.9978 137.381 63.3567 136.504 62.5328C135.627 61.7111 134.94 60.7506 134.447 59.6522C133.954 58.5556 133.707 57.3478 133.707 56.03C133.707 54.6767 134.01 53.4239 134.612 52.2717C135.214 51.1194 136.055 50.1389 137.133 49.335C138.21 48.5311 139.5 47.8994 140.999 47.4417C142.498 46.9839 144.143 46.7561 145.934 46.7561C147.212 46.7561 148.464 46.8656 149.688 47.0844C150.913 47.3056 152 47.6156 152.952 48.0178V46.3717C152.952 44.4694 152.412 43.0067 151.335 41.9817C150.255 40.9567 148.655 40.445 146.536 40.445C145.001 40.445 143.502 40.7178 142.041 41.2672C140.577 41.8161 139.081 42.6222 137.545 43.6833L135.297 39.0183C138.989 36.5661 142.973 35.34 147.25 35.34C151.379 35.34 154.587 36.3561 156.872 38.3861C159.157 40.4161 160.299 43.3528 160.299 47.1939V56.1394C160.299 56.9078 160.435 57.4572 160.709 57.7872C160.984 58.1155 161.43 58.2989 162.052 58.3344V64.5917C160.809 64.8461 159.732 64.9761 158.818 64.9761C157.427 64.9761 156.359 64.6656 155.612 64.0422C154.862 63.4217 154.396 62.5978 154.213 61.5728L154.048 59.9828C152.767 61.6644 151.215 62.9461 149.388 63.8239C147.56 64.7011 145.604 65.1411 143.522 65.1411ZM145.604 59.7617C146.846 59.7617 148.027 59.5428 149.142 59.1028C150.255 58.665 151.123 58.08 151.745 57.3478C152.548 56.7267 152.952 56.03 152.952 55.2617V51.97C152.073 51.64 151.123 51.3739 150.101 51.1728C149.077 50.9722 148.089 50.8717 147.141 50.8717C145.238 50.8717 143.685 51.3022 142.481 52.1622C141.273 53.0222 140.671 54.1094 140.671 55.4272C140.671 56.6711 141.144 57.705 142.096 58.5267C143.045 59.3506 144.216 59.7617 145.604 59.7617Z" fill="black" />
  <path d="M171.703 35.8339L177.898 44.8356L178.337 45.8222L178.884 44.8356L185.025 35.8339H192.591L182.34 50.2683L192.755 64.5917H185.191L178.83 55.6461L178.337 54.7128L177.898 55.6461L171.593 64.5917H164.026L174.389 50.2683L164.191 35.8339H171.703Z" fill="black" />
  <path d="M196.536 31.8278V24.5294H203.882V31.8278H196.536ZM196.536 64.5917V35.8339H203.882V64.5917H196.536Z" fill="black" />
  <path d="M29.835 56.5144H25.5698V52.245H29.835V56.5144Z" fill="#F5B034" />
  <path d="M34.1007 60.7844H29.835V56.5144H34.1007V60.7844Z" fill="#F5B034" />
  <path d="M38.3663 56.5144H34.1006V52.245H38.3663V56.5144Z" fill="#F5B034" />
  <path d="M42.6314 60.7844H38.3662V56.5144H42.6314V60.7844Z" fill="#F5B034" />
  <path d="M46.8965 56.5144H42.6313V52.245H46.8965V56.5144Z" fill="#F5B034" />
</svg>