<svg width="49" height="54" viewBox="0 0 49 54" fill="none" xmlns="http://www.w3.org/2000/svg">
  <path fill-rule="evenodd" clip-rule="evenodd" d="M13.2434 0.522264C4.49604 2.20504 6.03918e-05 8.87382 6.03918e-05 20.3105C-0.0305249 32.0276 11.5612 39.2261 23.4895 34.8945L25.6917 34.0843C27.4963 36.0164 27.8021 36.0164 25.8753 37.2006C24.346 38.1354 24.4988 39.1015 25.4776 39.4754C26.7927 39.974 34.7756 47.7958 35.8461 49.6967C39.7916 56.7083 49.64 54.2465 48.9672 48.7619C48.6613 46.2689 46.7955 43.3708 44.5934 41.314C42.1466 39.008 40.7702 37.1382 38.9657 33.648C37.2224 30.2513 35.6626 29.5034 33.3993 30.9057C32.4205 31.4978 32.3287 31.529 31.8088 31.0304C30.7383 30.0644 30.7995 29.4099 32.1146 27.3844C37.1306 19.5314 37.4058 12.6757 32.971 7.22221C26.7927 -0.38145 21.5016 2.36085 25.1106 4.72921C33.8886 10.4631 33.4299 22.1179 24.0708 30.9057C18.8713 35.7983 8.41108 33.1806 5.71957 26.3248C1.46822 15.418 8.47213 1.02086 19.8193 3.32689C23.7342 4.35526 25.2941 -1.78376 13.2434 0.522264ZM12.02 8.28174C10.7049 9.40359 11.5612 10.3696 14.0081 8.65568C15.7208 7.4715 16.5468 7.25337 18.1066 7.62732C20.1558 8.09476 21.4097 7.565 20.7675 6.50547C20.5534 6.13152 16.0573 4.8227 12.02 8.28174ZM24.2848 7.87661C22.6332 7.78313 22.2049 8.71801 23.3366 9.93335C24.7435 11.4603 27.5575 11.7096 27.4045 10.3073C27.3128 9.34127 25.5388 7.93894 24.2848 7.87661ZM34.9285 33.9908C35.1732 35.0192 37.5894 38.634 38.874 39.974C40.4339 41.5633 41.1067 42.6228 43.1253 44.8665C47.2238 49.4474 42.3301 53.9972 38.4763 48.2633C33.6133 41.0336 29.0866 38.7587 29.1478 37.9173C29.2396 36.8578 34.7144 33.1183 34.9285 33.9908Z" fill="#F5B034" />
</svg>