<svg width="96" height="104" viewBox="0 0 96 104" fill="none" xmlns="http://www.w3.org/2000/svg">
  <path fill-rule="evenodd" clip-rule="evenodd" d="M25.9644 1.00584C9.04045 4.24674 0.341914 17.0903 0.341914 39.1165C0.282739 61.6828 22.7098 75.5466 45.7878 67.2043L50.0485 65.6439C53.5398 69.3649 54.1316 69.3649 50.4036 71.6455C47.4449 73.446 47.7406 75.3065 49.6342 76.0267C52.1787 76.987 67.6234 92.0512 69.6946 95.7122C77.3281 109.216 96.3822 104.475 95.0804 93.9117C94.4886 89.1104 90.8788 83.5289 86.6182 79.5678C81.8843 75.1265 79.2215 71.5255 75.7302 64.8036C72.3572 58.2618 69.3395 56.8214 64.9606 59.5221C63.067 60.6625 62.8894 60.7225 61.8834 59.7622C59.8123 57.9017 59.9306 56.6414 62.4751 52.7403C72.1798 37.6161 72.7122 24.4124 64.1319 13.9094C52.1787 -0.734644 41.9417 4.54683 48.9242 9.1081C65.9073 20.1512 65.0198 42.5974 46.9124 59.5221C36.8527 68.9448 16.615 63.9034 11.4077 50.6997C3.18241 29.6938 16.7331 1.96611 38.6869 6.40735C46.2612 8.3879 49.2791 -3.4354 25.9644 1.00584ZM23.5974 15.95C21.0529 18.1106 22.7098 19.9711 27.4437 16.6702C30.7575 14.3896 32.3554 13.9694 35.3733 14.6896C39.338 15.5899 41.764 14.5696 40.5213 12.5291C40.1071 11.8089 31.4084 9.28816 23.5974 15.95ZM47.3264 15.1698C44.131 14.9897 43.3025 16.7902 45.4919 19.1309C48.214 22.0717 53.6582 22.5519 53.3623 19.8511C53.1848 17.9906 49.7526 15.2898 47.3264 15.1698ZM67.9193 65.4638C68.3927 67.4444 73.0674 74.4063 75.5528 76.987C78.5707 80.0479 79.8725 82.0884 83.778 86.4096C91.7074 95.2321 82.2393 103.995 74.7833 92.9515C65.3746 79.0276 56.6168 74.6464 56.7351 73.0259C56.9126 70.9853 67.5051 63.7834 67.9193 65.4638Z" fill="#F5B034" />
</svg>