<svg width="36" height="24" viewBox="0 0 36 24" fill="none" xmlns="http://www.w3.org/2000/svg">
  <path d="M27.7983 13.4617L28.8137 13.4381C39.9353 13.2492 36.2281 -3.09097 24.3272 1.23018C15.5433 4.41792 17.1725 19.0815 26.5705 21.49C30.7263 22.5526 35.3544 21.797 31.907 20.6163C28.9554 19.6246 26.5705 16.7675 26.7358 14.4299C26.783 13.9104 27.2316 13.4617 27.7983 13.4617Z" fill="#F5B034" />
  <path d="M6.09779 0.639871C-4.59883 4.74851 -0.254082 22.6943 11.6232 23.4735C14.7165 23.6861 15.5193 22.9541 13.1816 22.0804C10.9148 21.2303 8.05766 17.2161 7.75069 14.5007C7.67985 13.9576 8.10483 13.5089 8.64793 13.5089C11.7648 13.5089 13.0636 13.509 14.8818 11.006C19.3446 4.81944 13.4178 -2.17006 6.09779 0.639871Z" fill="#F5B034" />
</svg>