<svg width="223" height="89" viewBox="0 0 223 89" fill="none" xmlns="http://www.w3.org/2000/svg">
<path d="M137.856 1.43626C138.575 0.158812 139.85 -0.0270324 141.057 0.0658727C145.51 0.414267 150.01 -0.537976 154.464 0.507206C155.508 0.739469 156.668 0.855566 157.688 0.646529C163.488 -0.445105 169.008 1.97044 174.691 1.99366C177.939 3.75886 181.929 3.4337 185.037 5.77956C186.475 6.84797 188.424 7.24282 190.07 8.05574C193.132 9.56545 196.009 11.3306 198.444 13.7694C199.651 14.9539 201.089 15.9062 202.457 16.9049C204.962 18.7398 207.305 20.6908 208.79 23.5477C209.393 24.7322 210.576 25.6612 211.62 26.5671C213.383 28.1232 215.053 29.7026 215.726 32.0484C215.818 32.3504 215.934 32.6755 216.143 32.8614C219.043 35.6717 219.878 39.597 221.27 43.1274C223.264 48.2836 223.798 53.6257 221.455 58.9213C220.574 60.9187 219.414 62.6142 217.79 64.1704C211.62 70.0002 203.988 72.7177 196.055 74.8777C190.094 76.4803 184.132 78.1061 178.171 79.6623C176.083 80.1965 173.926 80.4752 171.838 80.9397C170.655 81.1952 169.379 81.3811 168.336 81.9617C166.225 83.1695 163.975 83.5411 161.655 83.634C157.178 83.8198 152.748 84.4701 148.317 85.1901C144.815 85.7476 141.265 85.9798 137.74 86.2818C131.755 86.816 125.747 87.327 119.762 87.7683C116.213 88.0238 112.688 88.1631 109.139 88.3489C106.216 88.5115 103.293 88.6741 100.37 88.8367C99.744 88.8831 99.0946 89.0922 98.5379 88.9528C93.6434 87.8147 88.6794 88.6973 83.7618 88.4651C80.3751 88.3257 77.0117 88.3025 73.6946 87.3038C72.4188 86.9321 70.9111 86.9786 69.5889 87.2341C66.4806 87.8147 63.5115 87.327 60.4032 86.9786C54.3953 86.3282 48.5267 85.2598 42.6812 83.6804C40.3152 83.0533 37.7867 83.0069 35.3279 82.8443C31.8949 82.6121 28.717 81.8456 25.5855 80.2662C21.7349 78.3152 17.6292 76.8752 13.6858 75.1564C11.227 74.088 9.16245 72.6015 7.79387 70.1395C7.14437 68.9782 5.9614 68.0956 4.94077 67.1666C3.61858 65.9821 2.482 64.4956 2.55159 62.8C2.64438 60.3845 1.43817 58.7122 0 56.9005C0.324748 56.0179 0.579817 55.1586 0.950958 54.3457C2.11077 51.8372 4.10572 49.7933 4.61604 46.9365C4.70883 46.3791 5.28876 45.9145 5.68309 45.4268C9.37131 40.9906 13.5466 37.2512 19.137 35.2305C24.4953 33.3027 29.9232 31.6072 35.0032 28.9361C36.6037 28.1 38.529 27.6819 40.3383 27.4729C45.0472 26.9154 49.5705 25.1503 54.3489 25.0109C54.952 24.9877 55.5783 24.8483 56.1582 24.616C61.5165 22.4328 67.3156 22.2702 72.8595 20.9928C74.7152 20.5747 76.5246 20.4121 78.3571 20.9928C79.7488 21.4108 81.1175 21.3876 82.4629 20.8766C86.615 19.274 90.9526 19.4598 95.2672 19.6921C97.61 19.8082 99.8833 19.7618 102.156 19.1811C104.314 18.6469 106.425 18.8095 108.559 19.3205C111.551 20.0173 114.566 20.6676 117.628 21.0625C120.597 21.4341 123.312 22.4792 125.933 23.8031C126.93 24.3141 127.672 25.0574 127.904 26.2187C128.345 28.3787 126.907 30.0045 124.796 29.5632C122.221 29.029 119.716 28.2393 117.141 27.8213C111.969 26.9851 106.773 26.3348 101.577 25.5683C98.1667 25.0574 94.7801 25.4754 91.463 26.0561C86.4294 26.9155 81.3262 27.1245 76.2926 27.8213C69.7281 28.7271 63.0707 29.4704 56.6453 31.0498C50.5215 32.5595 44.3281 33.8369 38.2275 35.5324C37.6244 35.695 36.9284 35.7182 36.4645 36.0666C33.5186 38.2266 29.9696 38.877 26.6293 40.0151C20.7143 42.059 15.5879 45.4036 11.111 49.7933C8.55941 52.3018 7.81711 55.2051 8.65218 58.689C9.41765 61.8246 10.7862 64.4026 13.477 66.3304C16.5157 68.5137 19.6936 70.4647 23.2658 71.5099C29.3433 73.2983 35.4671 74.9241 41.6141 76.4339C44.1425 77.061 46.7869 77.3165 49.3849 77.6184C57.9675 78.5707 66.5502 79.6623 75.156 80.3359C81.767 80.8469 88.401 80.9397 95.0352 80.9397C103.525 80.9397 112.015 80.6843 120.505 80.452C122.5 80.4056 124.471 79.9643 126.466 79.7088C132.149 79.0352 137.809 78.3849 143.492 77.6649C145.487 77.4094 147.459 77.061 149.431 76.6894C156.853 75.2958 164.276 73.7861 171.722 72.4854C176.269 71.6725 180.908 71.3241 185.269 69.5357C186.243 69.1408 187.38 68.955 188.447 68.8853C196.218 68.3743 202.898 64.6581 209.741 61.5226C214.009 59.5716 216.862 53.4863 216.027 48.5856C215.146 43.499 212.942 38.9931 210.089 34.6498C207.236 30.3065 203.246 27.1477 199.859 23.3618C198.955 22.3631 197.679 21.7128 196.612 20.8302C193.132 17.9966 188.864 16.4636 185.176 13.9552C182.996 12.4919 180.63 11.4236 178.008 10.8429C175.619 10.3087 173.323 9.30996 170.98 8.52027C170.098 8.21833 169.24 7.82346 168.336 7.6841C161.469 6.63892 154.789 4.64147 147.76 4.50211C145.023 4.45566 142.309 3.71242 139.595 3.22467C138.575 3.15499 137.832 2.59757 137.856 1.43626Z" fill="#F5B034"/>
</svg>
