<svg width="168" height="67" viewBox="0 0 168 67" fill="none" xmlns="http://www.w3.org/2000/svg">
  <path d="M103.855 1.08123C104.397 0.119555 105.358 -0.0203502 106.267 0.0495896C109.622 0.311864 113.012 -0.404993 116.368 0.381829C117.154 0.556679 118.028 0.644078 118.797 0.486713C123.165 -0.335079 127.325 1.48336 131.606 1.50085C134.053 2.8297 137.058 2.58492 139.4 4.3509C140.483 5.15521 141.951 5.45246 143.192 6.06444C145.499 7.20096 147.666 8.52979 149.501 10.3657C150.409 11.2574 151.493 11.9743 152.524 12.7262C154.411 14.1075 156.176 15.5762 157.295 17.7269C157.749 18.6186 158.64 19.318 159.427 19.9999C160.755 21.1714 162.013 22.3604 162.52 24.1263C162.59 24.3537 162.677 24.5984 162.834 24.7383C165.019 26.854 165.648 29.809 166.696 32.4667C168.199 36.3484 168.601 40.3699 166.836 44.3565C166.172 45.8602 165.298 47.1365 164.075 48.308C159.427 52.6968 153.677 54.7425 147.701 56.3686C143.21 57.5751 138.718 58.799 134.227 59.9705C132.655 60.3726 131.029 60.5825 129.457 60.9322C128.565 61.1245 127.604 61.2644 126.818 61.7015C125.228 62.6107 123.532 62.8905 121.785 62.9604C118.412 63.1003 115.074 63.5899 111.737 64.1319C109.098 64.5515 106.424 64.7264 103.768 64.9537C99.2593 65.3558 94.7333 65.7405 90.2246 66.0728C87.5509 66.2651 84.8947 66.37 82.221 66.5099C80.0191 66.6323 77.8172 66.7546 75.6153 66.877C75.1435 66.912 74.6542 67.0694 74.2348 66.9645C70.5475 66.1077 66.8078 66.7721 63.103 66.5973C60.5516 66.4924 58.0178 66.4749 55.5188 65.7231C54.5577 65.4433 53.4218 65.4783 52.4257 65.6706C50.084 66.1077 47.8472 65.7405 45.5055 65.4782C40.9794 64.9887 36.5582 64.1844 32.1544 62.9954C30.372 62.5233 28.4671 62.4883 26.6148 62.366C24.0284 62.1911 21.6343 61.6141 19.2752 60.4251C16.3743 58.9564 13.2812 57.8723 10.3104 56.5784C8.45802 55.7741 6.90265 54.6551 5.87161 52.8017C5.38231 51.9274 4.4911 51.263 3.72219 50.5636C2.7261 49.6719 1.86985 48.5528 1.92228 47.2764C1.99218 45.458 1.08347 44.1991 0 42.8352C0.244653 42.1708 0.436813 41.5239 0.716417 40.9119C1.59018 39.0235 3.0931 37.4849 3.47756 35.3342C3.54746 34.9146 3.98436 34.5649 4.28143 34.1977C7.06 30.8581 10.2055 28.043 14.4171 26.5218C18.4539 25.0706 22.543 23.7942 26.3701 21.7834C27.5759 21.1539 29.0264 20.8392 30.3894 20.6818C33.9369 20.2622 37.3446 18.9334 40.9445 18.8284C41.3988 18.811 41.8706 18.706 42.3075 18.5312C46.3443 16.8876 50.7131 16.7652 54.8897 15.8035C56.2877 15.4888 57.6508 15.3664 59.0313 15.8035C60.0799 16.1183 61.1109 16.1008 62.1245 15.7161C65.2526 14.5097 68.5204 14.6495 71.7708 14.8244C73.5358 14.9118 75.2484 14.8768 76.961 14.4397C78.5862 14.0376 80.1764 14.16 81.7841 14.5446C84.0384 15.0692 86.3102 15.5588 88.6169 15.856C90.8537 16.1358 92.8984 16.9226 94.8731 17.9192C95.6245 18.3039 96.1837 18.8634 96.3585 19.7377C96.6905 21.3638 95.6071 22.5877 94.0168 22.2555C92.0771 21.8533 90.1897 21.2588 88.25 20.9441C84.353 20.3146 80.4385 19.8251 76.5241 19.2481C73.9552 18.8634 71.4038 19.1781 68.9048 19.6153C65.1127 20.2622 61.2682 20.4196 57.4761 20.9441C52.5306 21.626 47.5151 22.1856 42.6745 23.3745C38.061 24.5111 33.3952 25.4727 28.7992 26.7491C28.3448 26.8715 27.8205 26.889 27.471 27.1513C25.2517 28.7774 22.578 29.2669 20.0615 30.1237C15.6054 31.6624 11.7433 34.1802 8.37062 37.4849C6.44835 39.3732 5.88912 41.5589 6.51823 44.1816C7.09491 46.5421 8.12592 48.4829 10.153 49.9341C12.4423 51.5777 14.8364 53.0465 17.5276 53.8333C22.1061 55.1796 26.7196 56.4036 31.3506 57.5401C33.2554 58.0122 35.2475 58.2045 37.2048 58.4318C43.6706 59.1487 50.1365 59.9705 56.6198 60.4776C61.6002 60.8622 66.5981 60.9322 71.596 60.9322C77.992 60.9322 84.3879 60.7398 90.7839 60.565C92.2868 60.53 93.7721 60.1978 95.275 60.0055C99.5564 59.4984 103.82 59.0088 108.102 58.4668C109.605 58.2745 111.09 58.0122 112.575 57.7324C118.168 56.6833 123.76 55.5468 129.369 54.5677C132.794 53.9557 136.289 53.6934 139.575 52.3471C140.309 52.0498 141.165 51.9099 141.969 51.8575C147.823 51.4728 152.856 48.6752 158.011 46.3148C161.227 44.846 163.376 40.265 162.747 36.5757C162.083 32.7465 160.423 29.3544 158.273 26.0847C156.124 22.815 153.118 20.437 150.567 17.587C149.885 16.8351 148.924 16.3456 148.12 15.6812C145.499 13.548 142.283 12.394 139.505 10.5056C137.862 9.40404 136.08 8.59975 134.105 8.16263C132.305 7.76048 130.575 7.00862 128.81 6.41413C128.146 6.18683 127.499 5.88957 126.818 5.78466C121.645 4.99784 116.612 3.49414 111.317 3.38923C109.255 3.35426 107.211 2.79474 105.166 2.42756C104.397 2.3751 103.838 1.95547 103.855 1.08123Z" fill="#E50004" />
</svg>