<svg width="57" height="71" viewBox="0 0 57 71" fill="none" xmlns="http://www.w3.org/2000/svg">
  <path d="M42.6983 30.2525C34.6308 26.1531 29.6366 29.708 35.6232 31.1172C50.7978 34.7041 52.8786 53.4394 38.3123 63.9119C21.0248 76.306 -0.680526 59.5244 10.3322 42.2943C15.0063 34.9923 20.2886 31.0531 25.5709 30.893C30.2129 30.7649 28.7403 28.427 24.0022 28.427C12.3172 28.427 -0.264283 43.3191 2.07273 54.4002C3.96155 63.4635 11.3888 69.3564 22.7537 70.7655C49.2292 74.0642 65.172 41.6538 42.6983 30.2525Z" fill="#F5B034" />
  <path d="M23.1962 55.0934C21.7975 52.852 21.6705 52.7559 20.2718 52.852C16.6161 53.1402 19.0321 58.3914 23.6414 60.1205C27.456 61.5614 33.3687 60.7929 35.3714 58.6476C38.3913 55.4136 37.66 50.2904 34.4812 52.4037C34.2905 52.5318 33.8455 53.3003 33.4959 54.0687C31.1435 59.32 26.089 59.8003 23.1962 55.0934Z" fill="#F5B034" />
  <path d="M36.9813 44.7912C35.8127 41.9182 33.9951 41.2166 32.6967 43.1543C31.1387 45.5262 32.0151 47.7311 34.5145 47.7311C37.0138 47.7311 37.7927 46.8291 36.9813 44.7912Z" fill="#F5B034" />
  <path d="M23.8653 45.3416C23.8653 43.1325 22.3502 42.1226 20.2625 42.9431C18.3769 43.6689 17.5014 47.0142 18.8482 48.1819C20.9696 49.9807 23.8653 48.3081 23.8653 45.3416Z" fill="#F5B034" />
  <path fill-rule="evenodd" clip-rule="evenodd" d="M22.515 1.9002C22.5563 4.00766 25.0166 7.39611 26.6912 6.75561C27.4148 6.46635 27.4148 6.15645 26.6291 3.90437C24.7478 -1.44691 22.4736 0.205977 22.515 1.9002ZM36.16 6.67296C35.5811 8.30521 37.5866 8.59447 38.9718 7.08619C40.3776 5.53659 41.8868 3.22254 42.6931 1.65228C43.5821 0.144003 41.8455 -0.620466 40.3983 0.619213C38.6823 2.06551 36.5528 5.53659 36.16 6.67296ZM7.67081 5.41263C6.389 5.92916 10.6893 11.2598 12.4259 11.3011C14.452 11.3424 14.6173 10.8879 13.2115 9.0077C10.9993 6.03247 9.13869 4.81345 7.67081 5.41263ZM27.1047 13.078C26.3398 13.8424 25.43 14.8962 25.0786 15.3921C22.0601 19.8962 22.0187 19.9375 20.6336 18.8838C17.429 16.4871 12.1571 14.8549 13.1908 19.0284C13.8317 21.5491 15.7338 26.1566 16.23 27.6855C17.5118 31.7145 18.194 32.3756 20.4682 31.8385C26.1123 30.4748 34.1754 30.4335 39.9435 31.7351C41.37 32.0657 41.4527 31.9004 41.5974 29.0285C41.8869 23.2227 45.2361 17.5615 45.2361 15.7433C45.2361 13.6978 41.37 15.2268 36.1187 19.3384L35.5812 19.7516L34.8162 19.2351C33.2449 18.1813 32.4593 19.0078 33.3483 20.764C34.0719 22.1896 34.6715 22.6648 36.2634 21.9004C37.1731 21.4665 38.4342 20.64 40.2122 19.3797C40.9151 18.8838 41.4941 18.5326 41.4941 18.5946C41.4941 18.8838 40.2329 24.2971 40.2329 24.3177L37.0904 24.0492C34.5888 23.9458 34.2993 25.2682 36.8836 25.6607C37.1524 25.702 39.7987 26.0326 39.7987 26.0326C39.7987 26.0326 39.6954 27.1896 39.4059 27.8508C39.0958 28.512 38.5789 28.6773 37.7313 28.388C31.0948 26.1979 20.2821 28.8632 20.2615 28.8632C19.8687 28.9252 16.2713 19.4417 16.5608 19.1524C16.6021 19.1111 17.0362 19.3797 17.5324 19.7516C23.1352 23.8219 23.7141 23.6979 27.4148 17.7681L29.1514 14.9788L29.8337 15.9912C31.8184 18.9458 34.6301 17.6441 33.0589 15.4747C32.5213 14.7516 31.6324 13.6772 30.2059 12.0036C29.5649 11.2391 28.6139 11.5697 27.1047 13.078ZM54.0021 12.7681C53.2578 13.2019 49.371 16.921 48.9161 17.6235C47.9445 19.1731 49.9705 19.5243 51.8106 18.1193C53.9607 16.4871 56.9998 13.6772 56.9998 13.3053C57.0205 12.5615 55.0151 12.1895 54.0021 12.7681ZM2.79164 22.6648C5.81009 23.4086 7.5467 23.5946 8.22895 23.2227C9.34537 22.6235 8.82853 22.1896 6.18221 21.5285C5.93412 21.4665 3.49452 20.7847 1.8199 20.7847C0.620789 20.7847 -2.04616 21.4458 2.79164 22.6648Z" fill="#F5B034" />
</svg>