<svg width="57" height="51" viewBox="0 0 57 51" fill="none" xmlns="http://www.w3.org/2000/svg">
  <path fill-rule="evenodd" clip-rule="evenodd" d="M5.68942 13.5485C-8.16316 33.8327 4.77591 52.1758 28.3711 50.6156C53.9071 48.9029 59.9961 26.6779 55.7716 16.7834C49.835 2.93073 41.6529 -0.0376816 28.295 0.000359026C20.874 0.0384278 14.138 1.18013 5.68942 13.5485ZM46.2197 36.4966C38.9889 50.273 15.0512 51.3387 8.61968 38.171C2.87312 26.4116 13.1485 3.61574 28.9039 3.42545C43.5938 3.23517 56.4189 17.0877 46.2197 36.4966ZM40.2448 21.1598C38.7224 22.3776 38.418 22.3396 36.1725 20.7413C35.069 19.9419 33.5466 20.665 33.5466 21.9589C33.5466 25.1557 41.2342 25.9929 44.0123 23.1007C46.5241 20.4748 43.2512 18.7624 40.2448 21.1598ZM21.3685 21.0837C21.0642 21.2359 20.3411 21.6546 19.7702 22.0353C18.8189 22.682 18.6668 22.682 17.601 22.1114C14.899 20.703 12.4254 21.8828 14.2521 23.7096C16.3452 25.8027 22.891 25.1557 23.9944 22.7583C24.6414 21.4644 22.929 20.3606 21.3685 21.0837ZM25.9354 27.2108C19.1993 28.771 15.5841 36.7629 21.597 36.7629C23.576 36.7629 23.9944 36.4205 25.1362 33.9087C27.5336 28.5808 35.069 29.6085 35.069 35.2788C35.069 36.7629 37.9232 37.6765 39.6739 36.7629C41.8811 35.5834 38.2659 29.8367 34.1938 28.0099C32.2149 27.1347 28.0665 26.754 25.9354 27.2108Z" fill="#E50004" />
</svg>