<svg width="93" height="83" viewBox="0 0 93 83" fill="none" xmlns="http://www.w3.org/2000/svg">
  <path fill-rule="evenodd" clip-rule="evenodd" d="M9.28274 22.1054C-13.3188 55.2006 7.79227 85.129 46.2897 82.5834C87.9536 79.789 97.8884 43.5271 90.9958 27.3835C81.3098 4.78171 67.96 -0.0614805 46.1655 0.000585779C34.0575 0.0626981 23.0672 1.92547 9.28274 22.1054ZM75.4112 59.5471C63.6135 82.0243 24.5573 83.7631 14.0637 62.279C4.68772 43.0927 21.4528 5.89937 47.159 5.5889C71.1267 5.27843 92.0518 27.88 75.4112 59.5471ZM65.6626 34.5238C63.1786 36.5109 62.6821 36.4488 59.0183 33.8411C57.2179 32.5368 54.7339 33.7165 54.7339 35.8277C54.7339 41.0436 67.2768 42.4095 71.8095 37.6906C75.9077 33.4062 70.5677 30.6123 65.6626 34.5238ZM34.8644 34.3997C34.3679 34.648 33.1881 35.3312 32.2567 35.9523C30.7046 37.0074 30.4563 37.0074 28.7175 36.0764C24.3089 33.7786 20.2731 35.7036 23.2535 38.6841C26.6686 42.0991 37.3484 41.0436 39.1488 37.132C40.2044 35.0208 37.4105 33.22 34.8644 34.3997ZM42.3156 44.3965C31.3252 46.9422 25.4266 59.9816 35.2373 59.9816C38.4661 59.9816 39.1488 59.423 41.0117 55.3248C44.9233 46.6318 57.2179 48.3085 57.2179 57.5601C57.2179 59.9816 61.8747 61.4721 64.7312 59.9816C68.3324 58.0571 62.4338 48.6809 55.7899 45.7004C52.5611 44.2724 45.7927 43.6513 42.3156 44.3965Z" fill="#E50004" />
</svg>